# xmcd
#
# Track frame offsets:
#	183
#	22008
#	35283
#	46520
#	60433
#	75258
#	88608
#	101858
#	117970
#	135458
#	150125
#	163708
#	178563
#	190433
#	202800
#	216383
#
# Disc length: 3169
#
# Revision: 2
# Processed by: cddbd v1.5.1PL0 Copyright (c) Steve Scherf et al.
# Submitted via: CDex 1.50Beta3
# Normalized: r0:DSETVAR1,TDELIM( - ),TSWAP
#
DISCID=c20c5f10
DTITLE=Various Artist - Das große deutsche Trucker-Album
DYEAR=1900
DGENRE=Country
TTITLE0=Tom Astor - Kameraden der Straße
TTITLE1=Jonny Hill - Ich bin einer so wie Du
TTITLE2=Ralf Paulsen - Goodbye Highways
TTITLE3=Tom Astor - Rollende Giganten
TTITLE4=Heidi Gehlert - Country Welt
TTITLE5=Charly - Trucker Fieber
TTITLE6=Tom Astor - Partner fahr rechts
TTITLE7=Western Union - Nach Süden
TTITLE8=Jonny Hill - Deine Augen
TTITLE9=Tom Astor - Und nachts wenn alles schlief
TTITLE10=Frank Baum and Country Green - Hey Lorraine
TTITLE11=Tom Astor - Das schöne Mädchen vo der Autobahn
TTITLE12=Rattlesnake Annie - Olè Uli
TTITLE13=Greyhounds - Geisterfahrer
TTITLE14=Tom Astor - Irgendwo am Horizont
TTITLE15=Invitation - Alle sind gekommen
EXTD=
EXTT0=
EXTT1=
EXTT2=
EXTT3=
EXTT4=
EXTT5=
EXTT6=
EXTT7=
EXTT8=
EXTT9=
EXTT10=
EXTT11=
EXTT12=
EXTT13=
EXTT14=
EXTT15=
PLAYORDER=
